# xmcd
#
# Track frame offsets: 
#        150
#        12254
#        22022
#        33875
#        44227
#        56690
#        69195
#        81160
#        92445
#        104121
#        113768
#        125202
#
# Disc length: 1800 seconds
#
# Revision: 0
# Processed by: cddbd v1.5.2PL0 Copyright (c) Steve Scherf et al.
# Submitted via: ExactAudioCopy v0.99pb4
#
DISCID=a207060c
DTITLE=Ferlin Husky - Among My Souvenirs
DYEAR=1900
DGENRE=Country
TTITLE0=Boulevard Of Broken Dreams
TTITLE1=But Where Are You
TTITLE2=I'll Walk Alone
TTITLE3=Stormy Weather
TTITLE4=It All Comes Back To Me Now
TTITLE5=Among My Souvenirs
TTITLE6=Me And My Shadow
TTITLE7=Out In The Cold Again
TTITLE8=It's The Talk Of The Town
TTITLE9=When I Lost You
TTITLE10=I'll Never Smile Again
TTITLE11=(Here Am I) Broken Hearted
EXTD=
EXTT0=
EXTT1=
EXTT2=
EXTT3=
EXTT4=
EXTT5=
EXTT6=
EXTT7=
EXTT8=
EXTT9=
EXTT10=
EXTT11=
PLAYORDER=
